<?xml version="1.0" encoding="utf-8"?>
<!-- Generator: Adobe Illustrator 22.1.0, SVG Export Plug-In . SVG Version: 6.00 Build 0)  -->
<svg version="1.1" id="Layer_1" xmlns="http://www.w3.org/2000/svg" xmlns:xlink="http://www.w3.org/1999/xlink" x="0px" y="0px"
	 viewBox="0 0 117 117" style="enable-background:new 0 0 117 117;" xml:space="preserve">
<style type="text/css">
	.st0{fill:#221F1F;}
	.st1{fill:url(#SVGID_1_);}
</style>
<g>
	<g>
		<path class="st0" d="M39.6,41h6.1l1.2,3.1h4.3l-6.6-15.9h-3.7l-6.7,15.9h4.2L39.6,41z M42.7,32.5l2,5.4h-4L42.7,32.5z"/>
		<path class="st0" d="M57.6,41.4c-1.3,0-2.7-0.7-3.4-1.7l-2.5,2.6c1.4,1.5,3.7,2.3,5.9,2.3c3.1,0,6.1-1.6,6.1-5.3
			c0-3.2-2.8-4.1-4.9-4.8c-1.5-0.5-2.4-0.8-2.4-1.9c0-1.3,1.2-1.6,2.2-1.6c1,0,2.2,0.5,2.8,1.4l2.4-2.6c-1.4-1.3-3.4-1.9-5.2-1.9
			c-3,0-6.1,1.5-6.1,5c0,2.9,2,3.9,4.1,4.5c2.1,0.7,3.3,1.1,3.3,2.3C59.8,40.9,58.8,41.4,57.6,41.4z"/>
		<polygon class="st0" points="70,36.8 70,36.8 75.9,44.1 80.9,44.1 73.7,35.6 80.5,28.3 75.7,28.3 70.1,34.7 70,34.7 70,28.3 
			66.2,28.3 66.2,44.1 70,44.1 		"/>
		<polygon class="st0" points="30.8,65 34.6,65 34.6,58.3 40.7,49.2 36.2,49.2 32.8,55.1 29.5,49.2 24.8,49.2 30.8,58.3 		"/>
		<path class="st0" d="M76.3,65h3.8v-6.3h1.3l3.4,6.3h4.5l-4.1-6.8c2-0.6,3.3-2.2,3.3-4.3c0-3.6-3-4.8-6.1-4.8h-6.1V65z M80.1,52.3
			h2c1.1,0,2.6,0.3,2.6,1.8c0,1.6-1.5,1.9-2.8,1.9h-1.8V52.3z"/>
		<path class="st0" d="M63.4,49.2h-3.8v9.9c0,3.8,2.6,6.4,6.8,6.4c4.1,0,6.8-2.6,6.8-6.4v-9.9h-3.8v9.6c0,1.7-0.8,3.3-3,3.3
			c-2.2,0-3-1.6-3-3.3V49.2z"/>
		<path class="st0" d="M40,57c0,5,3.7,8.4,8.6,8.4c5,0,8.6-3.4,8.6-8.4c0-5.1-3.7-8.3-8.6-8.3C43.7,48.8,40,52,40,57z M53.2,57
			c0,2.9-1.9,4.9-4.5,4.9c-2.7,0-4.5-2.1-4.5-4.9c0-2.8,1.8-4.8,4.5-4.8S53.2,54.3,53.2,57z"/>
		<polygon class="st0" points="25.1,73.4 29.6,73.4 29.6,85.9 33.5,85.9 33.5,73.4 37.9,73.4 37.9,70.1 25.1,70.1 		"/>
		<polygon class="st0" points="43.4,79.4 50,79.4 50,76.3 43.4,76.3 43.4,73.3 50.3,73.3 50.3,70.1 39.7,70.1 39.7,85.9 50.7,85.9 
			50.7,82.7 43.4,82.7 		"/>
		<polygon class="st0" points="79.2,80.3 79.1,80.3 75.5,70.1 70.1,70.1 70.1,85.9 73.7,85.9 73.6,74.7 73.6,74.7 77.6,85.9 
			80.3,85.9 84.5,74.7 84.5,74.7 84.4,85.9 88.2,85.9 88.2,70.1 82.6,70.1 		"/>
		<path class="st0" d="M58.4,70.1l-6.7,15.9h4.2l1.2-3.1h6.1l1.2,3.1h4.3l-6.6-15.9H58.4z M58.2,79.8l2-5.4l2,5.4H58.2z"/>
	</g>
	<radialGradient id="SVGID_1_" cx="39.4279" cy="107.6573" r="138.6577" gradientUnits="userSpaceOnUse">
		<stop  offset="1.176851e-02" style="stop-color:#F9AE42"/>
		<stop  offset="1" style="stop-color:#F05826"/>
	</radialGradient>
	<path class="st1" d="M58.5,0.5c-32,0-58,26-58,58c0,16.7,7.1,31.8,18.4,42.4L21.3,86c-5.9-7.8-9.4-17.6-9.4-28.1
		c0-25.8,20.9-46.7,46.7-46.7c25.8,0,46.7,20.9,46.7,46.7c0,25.8-20.9,46.7-46.7,46.7c-9.7,0-18.7-3-26.2-8l-13.4,4.4
		c10.4,9.7,24.3,15.6,39.6,15.6c32,0,58-26,58-58C116.5,26.5,90.5,0.5,58.5,0.5z"/>
</g>
</svg>
